<svg width="56" height="55" viewBox="0 0 56 55" fill="none" xmlns="http://www.w3.org/2000/svg">
<g opacity="0.8">
<path d="M18.0047 40.9294L17.7296 35.0718C17.7296 35.0718 18.7162 33.5578 19.296 33.1801C19.8758 32.8025 19.568 26.479 19.568 26.479L13.5517 26.6908C13.5517 26.6908 13.355 32.1606 13.5968 32.8263C13.8386 33.4919 15.1125 34.3769 15.1125 34.3769C15.1125 34.3769 15.5182 38.6336 15.1773 40.9082C14.8365 43.1827 18.0047 40.9294 18.0047 40.9294Z" fill="white" stroke="black" stroke-width="6.12147"/>
<path fill-rule="evenodd" clip-rule="evenodd" d="M15.2152 44.3565C15.8373 44.043 17.0509 43.1137 17.7428 43.0011C17.8068 45.0099 17.9824 47.0299 18.102 49.0359C18.2194 51.0031 18.9185 53.7383 17.0718 54.2523C16.071 54.5308 15.237 54.0251 14.9215 53.4255C14.4712 52.5696 15.125 45.5457 15.2152 44.3565ZM13.9096 26.7626C14.4872 26.9994 14.1746 27.0391 14.2081 28.6938C14.2202 29.2874 14.0823 30.2346 14.7018 30.3856C15.6615 30.6193 15.4156 28.805 15.4029 27.8572C15.3959 27.3023 15.2715 27.1218 15.6335 26.8973C16.6089 27.3927 14.8201 30.8031 16.897 30.3007C17.2332 29.6688 17.0462 28.3625 17.0757 27.5777C17.1019 26.8812 16.9603 27.0929 17.3574 26.8622C17.8029 27.1391 17.6176 27.2231 17.6083 28.5548C17.6034 29.2069 17.5452 29.7995 17.7762 30.3198C19.1343 30.5596 18.8189 29.4712 18.8001 27.7199C18.7931 27.1067 18.6662 26.9885 19.0812 26.7554C19.4179 27.1401 19.2923 27.9119 19.2834 28.4174C19.2716 29.0963 19.2621 29.6626 19.2799 30.3414C19.3868 34.4314 18.5083 32.6195 17.673 34.3514C17.4395 34.8357 17.3465 35.3946 17.3321 35.9685C17.3005 37.2165 17.5328 38.4446 17.5073 39.6863L15.4698 40.164C15.5476 38.8832 15.6567 37.6351 15.6919 36.3876C15.7305 35.0183 15.5069 34.2417 14.5834 33.5428C13.2232 32.5133 13.8048 30.9579 13.7505 28.5548L13.9096 26.7626ZM24.3821 18.9119C25.6409 18.5251 26.1707 17.8304 27.1425 17.437C30.265 16.1729 33.7159 20.1977 29.5687 22.9211C26.4048 24.9988 20.9729 26.398 16.3518 26.2358C10.9291 26.0455 7.19294 25.2777 3.26778 22.7979C0.993819 21.3614 1.08253 19.0222 2.85495 17.7065C5.01248 16.1051 7.06197 18.4099 8.71444 18.9621C7.97515 20.3568 7.19044 20.4365 7.4037 21.2686C8.39019 21.1696 8.55762 19.9446 9.45672 19.2759L11.0897 19.71C10.8022 20.5409 9.87667 21.3139 10.0972 22.0331C10.7159 22.0632 11.3506 20.7514 11.7951 19.9319C13.0254 20.0111 13.5275 20.1668 13.7545 20.3095C13.5214 20.8456 12.6223 21.9235 13.0477 22.4884C13.6426 22.4436 13.3576 22.564 13.6183 22.0887L14.4765 20.2898L16.1367 20.3751C16.2098 21.0571 15.8744 22.4398 16.4954 22.8026C17.1487 22.4756 16.746 21.783 16.869 20.3696L18.6503 20.3029C19.6426 21.6221 19.1893 22.5572 20.1861 22.4624C20.361 21.7412 19.6474 20.8263 19.4053 20.1946L21.3526 19.9109C21.5846 20.389 21.7899 20.6502 22.0863 21.1431C22.4114 21.6838 22.487 22.0933 23.0159 22.0219C23.3678 21.2803 22.4421 20.8963 22.0513 19.701L23.6783 19.2514C24.4397 19.8956 24.8711 21.0909 25.4351 21.2012C25.6853 21.2502 25.6009 21.2144 25.7316 21.1609C25.89 20.5755 24.7058 19.6289 24.3821 18.9119ZM0.198408 18.2828L1.25565 18.4693C0.206358 22.1146 2.37748 23.2467 4.92869 24.4992C6.08146 25.0653 7.33535 25.4486 8.65435 25.8773C9.83598 26.261 12.2521 26.3974 13.0609 26.7684L13.08 31.166C13.1309 36.6364 15.6548 30.3241 14.7837 40.2361C13.8271 40.907 14.1481 40.1468 13.9761 42.9392C13.6364 48.453 14.5028 44.8618 14.2491 49.2178C14.1877 50.2706 14.0551 51.4397 14.0529 52.4709C14.048 54.5677 16.4499 55.7928 18.1052 54.4172C19.569 53.201 18.7478 50.4753 18.7466 48.3342C24.5297 48.4903 25.9605 44.6487 32.7997 45.1314C38.2075 45.513 41.9426 48.62 47.3923 47.8904L51.3284 41.5271C48.6659 42.1613 46.2879 43.0988 43.2197 43.0978C37.1748 43.096 34.2247 39.9176 26.0771 42.9407C24.0443 43.6949 20.627 45.6003 18.4495 43.8709L18.3751 42.5586C20.5675 41.7506 21.8816 40.9913 24.6086 40.5899C31.5895 39.562 38.648 40.2958 45.6556 40.5855C48.5733 40.7061 54.6907 39.9849 54.9891 36.5715C55.0718 35.6242 54.6743 35.3903 54.1368 35.0288C53.714 34.3079 52.8292 34.6411 54.2644 35.5102C54.406 35.9275 53.9539 37.2719 53.0469 37.8758L53.0462 37.8764C48.8302 40.6814 35.5469 38.8553 30.1433 38.8531C25.9183 38.8525 22.2858 39.2438 18.1841 39.6523C18.1428 38.4903 17.9869 37.2544 17.9916 36.1119C17.9998 34.1494 18.608 34.5078 19.3851 33.6561C20.5007 32.4337 19.7304 28.5919 19.9997 26.6843C23.756 26.2789 28.6541 24.9694 31.2156 22.4344C32.3445 21.3172 32.2099 20.0443 31.7836 18.4934L32.8807 18.3043C33.1552 17.2055 33.1109 16.9045 32.1625 16.4403C30.9783 15.8605 31.132 16.4809 30.7179 17.2503C25.3175 14.8925 26.8704 19.722 16.496 19.7197C9.11857 19.7179 7.89762 17.4442 5.97436 16.7723C4.27766 16.1795 3.44764 16.7351 2.26942 17.2775C2.17976 16.8376 2.02102 16.496 1.8339 16.2056C0.904392 16.1107 0.853328 16.3903 0.785462 16.4224L0.248599 16.7305C-0.190505 17.2012 0.0565233 17.8261 0.198408 18.2828Z" fill="#060606"/>
<path fill-rule="evenodd" clip-rule="evenodd" d="M24.3821 18.9119C24.7058 19.6289 25.89 20.5755 25.7316 21.1609C25.6009 21.2144 25.6853 21.2502 25.4351 21.2012C24.8711 21.0909 24.4397 19.8956 23.6783 19.2514L22.0513 19.701C22.4421 20.8962 23.3678 21.2803 23.0159 22.0219C22.487 22.0934 22.4114 21.6838 22.0863 21.1431C21.7899 20.6502 21.5846 20.389 21.3526 19.9109L19.4053 20.1946C19.6474 20.8263 20.361 21.7412 20.1861 22.4624C19.1893 22.5572 19.6426 21.6221 18.6503 20.3029L16.869 20.3696C16.746 21.783 17.1487 22.4756 16.4954 22.8026C15.8744 22.4398 16.2099 21.0571 16.1367 20.3751L14.4765 20.2898L13.6183 22.0887C13.3576 22.564 13.6426 22.4436 13.0477 22.4884C12.6223 21.9235 13.5214 20.8456 13.7545 20.3095C13.5275 20.1668 13.0254 20.0112 11.7951 19.9319C11.3506 20.7514 10.7159 22.0633 10.0972 22.0331C9.87667 21.3139 10.8022 20.5409 11.0897 19.71L9.45672 19.2759C8.55762 19.9446 8.3902 21.1696 7.4037 21.2686C7.19044 20.4365 7.97515 20.3568 8.71444 18.9621C7.06197 18.4099 5.01248 16.1051 2.85495 17.7065C1.08253 19.0221 0.993819 21.3614 3.26778 22.7979C7.19294 25.2777 10.9291 26.0455 16.3518 26.2358C20.9729 26.398 26.4048 24.9988 29.5687 22.9211C33.7159 20.1977 30.265 16.1729 27.1425 17.437C26.1707 17.8304 25.6409 18.5251 24.3821 18.9119Z" fill="#FEFEFE"/>
<path fill-rule="evenodd" clip-rule="evenodd" d="M16.1916 18.5155C17.4974 18.4151 18.1285 15.3577 18.1952 14.2647C18.4 10.9119 15.8867 8.09252 14.7551 5.08502C13.6802 2.22766 15.2431 0.90076 15.0223 0.00737783C14.1611 -0.0909908 13.7912 0.815727 13.434 1.4492C10.9368 5.87859 15.1301 8.5892 16.2282 12.9748C16.7104 14.9006 15.9484 17.905 16.1916 18.5155Z" fill="#2F2F2F"/>
<path fill-rule="evenodd" clip-rule="evenodd" d="M15.2152 44.3565C15.125 45.5456 14.4712 52.5695 14.9215 53.4254C15.237 54.025 16.0711 54.5308 17.0718 54.2522C18.9185 53.7382 18.2194 51.003 18.1021 49.0358C17.9824 47.0298 17.8068 45.0098 17.7428 43.001C17.0509 43.1136 15.8373 44.0429 15.2152 44.3565Z" fill="#FEFEFE"/>
<path fill-rule="evenodd" clip-rule="evenodd" d="M12.9128 17.5249C13.8686 17.4328 14.2206 15.7337 14.2985 14.9187C14.4279 13.5661 14.0521 12.6854 13.5394 11.5947C13.0994 10.6591 12.5202 9.81297 12.1427 8.80821C11.4224 6.89164 12.4708 6.02409 12.233 5.41833C11.3056 5.18591 10.676 7.13203 10.6086 7.80564C10.3643 10.2452 12.3444 11.4823 12.8805 13.8802C13.1101 14.9077 12.6794 17.0935 12.9128 17.5249Z" fill="#060606"/>
<path fill-rule="evenodd" clip-rule="evenodd" d="M19.8393 15.3135C21.1487 15.195 21.7814 12.1594 20.4498 9.37883C19.5826 7.56826 18.203 6.06345 19.0256 4.02474L19.1244 3.21789C18.1707 2.98907 16.4316 5.74823 18.4496 8.81625C20.9734 12.6529 19.2745 14.4419 19.8393 15.3135Z" fill="#060606"/>
<path d="M28.8107 27.4956L28.565 28.1056C26.8398 28.0128 24.5217 29.4458 23.9331 31.5074C23.7384 32.1892 23.7108 32.4673 23.8584 33.3949C23.8584 33.3949 24.2644 29.7495 27.9706 28.9723L25.8541 34.1262C25.8541 34.1262 25.3893 33.9894 24.8862 34.1153C24.6009 34.1864 24.2371 34.5083 24.4666 35.0318C24.709 35.5845 26.0034 34.731 26.0034 34.731C26.2614 34.6982 28.0434 35.0613 29.1526 34.3155C29.7902 33.8867 30.5133 32.6951 30.7149 31.9853C31.0813 30.6961 31.0063 28.8376 29.5457 28.3729L29.6705 27.7695L28.8107 27.4956ZM28.9836 29.0804C29.2294 29.1155 29.6122 29.2092 29.7667 29.5551C30.3658 30.8963 29.8854 34.082 26.9153 33.9523L28.9836 29.0804Z" fill="black" stroke="black" stroke-width="1.47146"/>
<path d="M35.0291 30.4368L34.2961 30.8635C31.8308 29.4475 30.4974 34.2249 30.4974 34.2249L29.4883 34.5934C30.0139 34.8908 30.974 34.7587 30.974 34.7587C32.3935 35.0112 32.9893 34.3649 32.9893 34.3649C34.247 35.02 34.8118 34.7603 34.9397 34.6826C34.8598 34.7018 34.6891 34.6507 34.4081 34.113C34.001 33.3339 35.4448 30.8954 35.4448 30.8954L35.0291 30.4368ZM34.9397 34.6826C34.9756 34.6735 34.9947 34.6528 34.9947 34.6528C34.9947 34.6528 34.9578 34.672 34.9397 34.6826ZM33.6594 31.5864C33.9292 31.5864 34.071 31.7252 34.0937 31.8364C34.1394 32.059 32.6985 34.5074 31.9389 33.9993C31.1794 33.4911 32.4528 32.1475 32.4528 32.1475C32.991 31.7185 33.3896 31.5847 33.6594 31.5864Z" fill="black"/>
<path d="M34.9397 34.6826C34.8118 34.7603 34.247 35.02 32.9893 34.3649C32.9893 34.3649 32.3935 35.0112 30.974 34.7587C30.974 34.7587 30.0139 34.8908 29.4883 34.5934L30.4974 34.2249C30.4974 34.2249 31.8308 29.4475 34.2961 30.8635L35.0291 30.4368L35.4448 30.8954C35.4448 30.8954 34.001 33.3339 34.4081 34.113C34.6891 34.6507 34.8598 34.7018 34.9397 34.6826ZM34.9397 34.6826C34.9756 34.6735 34.9947 34.6528 34.9947 34.6528C34.9947 34.6528 34.9578 34.672 34.9397 34.6826ZM33.6594 31.5864C33.9292 31.5864 34.071 31.7252 34.0937 31.8364C34.1394 32.059 32.6985 34.5074 31.9389 33.9993C31.1794 33.4911 32.4528 32.1475 32.4528 32.1475C32.991 31.7185 33.3896 31.5847 33.6594 31.5864Z" stroke="black" stroke-width="1.47146"/>
<path d="M42.4611 30.509C40.7006 30.5209 39.9644 33.7375 39.8784 34.1435L40.2371 34.9455C40.8301 35.1494 42.3323 34.2427 42.3323 34.2427C43.6676 35.5458 45.4796 34.6281 45.4796 34.6281C46.2218 35.0668 47.6677 34.7794 47.6677 34.7794C48.1337 34.97 50.0348 34.7458 50.0348 34.7458C51.9437 35.1913 52.7222 33.8857 52.7222 33.8857C53.7594 35.5112 54.2909 35.2253 54.2909 35.2253C54.2909 35.2253 53.8235 34.7579 53.7989 34.4282C53.7438 33.6864 54.7994 30.702 54.7994 30.702L53.7511 30.578L53.5792 31.0601C53.5792 31.0601 53.7747 30.4531 51.9206 30.734C50.0665 31.0148 49.6989 33.9826 49.6989 33.9826C48.9849 34.7661 48.2565 34.3623 48.2565 34.3623L48.7536 33.7174C49.2927 32.7893 48.0009 31.6825 48.0009 31.6825C48.7239 30.8886 48.4351 30.4934 47.4939 30.6842C46.5526 30.875 46.9939 32.0246 46.9939 32.0246C46.9939 32.0246 46.4602 32.706 45.456 33.7785C44.4517 34.8511 43.7686 34.4918 43.6442 34.1678C43.5199 33.8438 44.9226 30.8439 44.9226 30.8439L43.9282 30.6184L43.6254 30.9285C43.1958 30.6313 42.8088 30.5068 42.4611 30.5093V30.509ZM42.9188 31.5283C43.0928 31.5339 43.2662 31.5886 43.4269 31.7189C43.4269 31.7189 42.2081 33.8882 41.1975 33.9467C40.1868 34.0049 41.675 32.1146 41.675 32.1146C41.675 32.1146 42.2481 31.5564 42.8442 31.5289C42.869 31.5278 42.894 31.5274 42.9188 31.5283ZM52.8368 31.6226C53.0195 31.6286 53.2023 31.6854 53.3708 31.8222C53.3708 31.8222 52.0913 34.0978 51.0312 34.159C49.971 34.2203 51.5323 32.2377 51.5323 32.2377C51.5323 32.2377 52.1333 31.6519 52.7586 31.6231C52.7847 31.6219 52.8107 31.622 52.8368 31.6226ZM47.3248 32.8225C47.3248 32.8225 47.7915 34.4768 46.922 34.3546C46.0524 34.2326 46.2077 33.9118 46.2077 33.9118C46.2077 33.9118 47.3109 32.9859 47.3248 32.8225Z" fill="black" stroke="black" stroke-width="1.47146"/>
<path d="M39.8784 34.1434C39.8784 34.1434 38.7531 35.8812 37.9793 35.9751C37.2055 36.069 36.6621 35.4943 36.6172 35.1194C36.5721 34.7445 37.5696 31.469 38.8655 30.0418C40.1614 28.6145 41.3867 27.8803 41.4237 28.692C41.4608 29.5037 39.9511 30.2283 39.9511 30.2283C39.9511 30.2283 39.5182 31.2299 40.5794 30.8321C41.6406 30.4343 43.8907 28.5552 41.5601 27.3437C39.2295 26.1322 35.1136 33.4644 35.5034 35.0743C35.8932 36.6843 37.1991 37.8424 38.9653 36.3267C40.7315 34.8109 40.6629 34.2797 40.6629 34.2797C40.6629 34.2797 40.5223 33.3357 39.8784 34.1434Z" fill="black" stroke="black" stroke-width="1.47146"/>
</g>
</svg>
