<svg width="30" height="27" viewBox="0 0 30 27" fill="none" xmlns="http://www.w3.org/2000/svg">
<g id="&#240;&#159;&#166;&#134; icon &#34;Email&#34;">
<path id="Vector" d="M26.375 3.38232H3.875C3.37772 3.38232 2.90081 3.55082 2.54917 3.85074C2.19754 4.15066 2 4.55744 2 4.98159V17.7757C2 18.1999 2.19754 18.6066 2.54917 18.9066C2.90081 19.2065 3.37772 19.375 3.875 19.375H26.375C26.8723 19.375 27.3492 19.2065 27.7008 18.9066C28.0525 18.6066 28.25 18.1999 28.25 17.7757V4.98159C28.25 4.55744 28.0525 4.15066 27.7008 3.85074C27.3492 3.55082 26.8723 3.38232 26.375 3.38232ZM24.3125 4.98159L15.125 10.4031L5.9375 4.98159H24.3125ZM3.875 17.7757V5.70925L14.5906 12.0343C14.7476 12.1272 14.934 12.177 15.125 12.177C15.316 12.177 15.5024 12.1272 15.6594 12.0343L26.375 5.70925V17.7757H3.875Z" fill="black"/>
</g>
</svg>
