<svg width="23" height="27" viewBox="0 0 23 27" fill="none" xmlns="http://www.w3.org/2000/svg">
<g id="&#240;&#159;&#166;&#134; icon &#34;location pin&#34;">
<path id="Vector" d="M11.1501 6.83936C10.3385 6.83936 9.54514 7.04463 8.87033 7.42921C8.19552 7.81379 7.66957 8.36042 7.35899 8.99995C7.04841 9.63949 6.96715 10.3432 7.12548 11.0222C7.28381 11.7011 7.67463 12.3247 8.24851 12.8142C8.82238 13.3037 9.55355 13.637 10.3495 13.7721C11.1455 13.9071 11.9706 13.8378 12.7204 13.5729C13.4702 13.308 14.1111 12.8594 14.562 12.2838C15.0129 11.7083 15.2535 11.0316 15.2535 10.3393C15.2523 9.41141 14.8196 8.52179 14.0503 7.86564C13.281 7.2095 12.238 6.84041 11.1501 6.83936ZM11.1501 12.0893C10.7443 12.0893 10.3476 11.9867 10.0102 11.7944C9.6728 11.6021 9.40983 11.3288 9.25454 11.009C9.09925 10.6893 9.05862 10.3374 9.13778 9.99793C9.21695 9.65847 9.41236 9.34665 9.6993 9.10191C9.98624 8.85717 10.3518 8.6905 10.7498 8.62297C11.1478 8.55545 11.5603 8.59011 11.9352 8.72256C12.3102 8.85501 12.6306 9.07931 12.856 9.3671C13.0815 9.65488 13.2018 9.99322 13.2018 10.3393C13.2012 10.8033 12.9848 11.2481 12.6002 11.5762C12.2155 11.9043 11.694 12.0888 11.1501 12.0893Z" fill="black"/>
<path id="Vector_2" d="M19.0353 3.60844C17.0857 1.94597 14.4832 0.958399 11.7302 0.836322C8.97708 0.714246 6.26857 1.46632 4.12738 2.9474C1.98618 4.42847 0.564093 6.53356 0.135573 8.85636C-0.292947 11.1792 0.302481 13.555 1.80694 15.5254L9.55902 25.6761C9.73153 25.9019 9.96741 26.0875 10.2453 26.216C10.5231 26.3444 10.8342 26.4117 11.1502 26.4117C11.4663 26.4117 11.7773 26.3444 12.0552 26.216C12.333 26.0875 12.5689 25.9019 12.7414 25.6761L20.4938 15.5254C21.8897 13.6976 22.5066 11.516 22.2411 9.34642C21.9756 7.17679 20.8437 5.15094 19.0353 3.60844ZM18.7747 14.5702L11.1503 24.5533L3.52576 14.5702C1.19194 11.5143 1.69249 7.42479 4.71595 4.84585C5.5609 4.12513 6.56402 3.55343 7.66802 3.16338C8.77202 2.77332 9.95529 2.57257 11.1503 2.57257C12.3452 2.57257 13.5285 2.77332 14.6325 3.16338C15.7365 3.55343 16.7396 4.12513 17.5846 4.84585C20.608 7.42479 21.1085 11.5143 18.7747 14.5702Z" fill="black"/>
</g>
</svg>
