<svg width="600" height="600" viewBox="0 0 600 600" fill="none" xmlns="http://www.w3.org/2000/svg">
<g opacity="0.8">
<path d="M196.415 446.501L193.414 382.601C193.414 382.601 204.176 366.084 210.502 361.964C216.827 357.845 213.469 288.861 213.469 288.861L147.836 291.172C147.836 291.172 145.691 350.842 148.329 358.104C150.966 365.365 164.863 375.02 164.863 375.02C164.863 375.02 169.29 421.456 165.571 446.27C161.852 471.084 196.415 446.501 196.415 446.501Z" fill="white" stroke="black" stroke-width="6.12147"/>
<path fill-rule="evenodd" clip-rule="evenodd" d="M165.984 483.889C172.77 480.468 186.01 470.331 193.558 469.102C194.256 491.016 196.172 513.052 197.477 534.936C198.757 556.397 206.384 586.235 186.238 591.843C175.321 594.881 166.221 589.364 162.78 582.823C157.868 573.486 165 496.861 165.984 483.889ZM151.741 291.955C158.042 294.538 154.632 294.972 154.997 313.022C155.129 319.498 153.625 329.832 160.384 331.478C170.852 334.028 168.17 314.235 168.031 303.896C167.955 297.842 166.599 295.873 170.547 293.425C181.188 298.829 161.673 336.033 184.331 330.552C187.998 323.659 185.958 309.408 186.28 300.847C186.566 293.249 185.022 295.558 189.353 293.042C194.213 296.063 192.192 296.978 192.091 311.507C192.037 318.62 191.402 325.084 193.923 330.761C208.738 333.377 205.297 321.504 205.092 302.398C205.015 295.708 203.631 294.42 208.159 291.877C211.831 296.073 210.461 304.493 210.365 310.007C210.235 317.413 210.132 323.591 210.326 330.997C211.493 375.614 201.908 355.848 192.796 374.742C190.249 380.025 189.235 386.122 189.077 392.383C188.733 405.998 191.267 419.395 190.989 432.941L168.761 438.152C169.61 424.179 170.801 410.564 171.184 396.955C171.606 382.017 169.166 373.545 159.092 365.92C144.253 354.69 150.598 337.722 150.005 311.507L151.741 291.955ZM265.987 206.311C279.719 202.092 285.498 194.513 296.1 190.221C330.163 176.431 367.81 220.337 322.567 250.047C288.052 272.714 228.795 287.978 178.384 286.208C119.227 284.132 78.4684 275.756 35.6485 248.704C10.8417 233.033 11.8095 207.514 31.1449 193.161C54.6816 175.691 77.0397 200.835 95.0666 206.858C87.0016 222.074 78.4411 222.943 80.7677 232.02C91.5294 230.94 93.3558 217.576 103.164 210.282L120.978 215.018C117.843 224.082 107.746 232.515 110.152 240.36C116.9 240.689 123.825 226.378 128.674 217.438C142.096 218.303 147.573 220.001 150.05 221.557C147.506 227.406 137.698 239.165 142.338 245.327C148.828 244.838 145.72 246.152 148.563 240.967L157.925 221.343L176.037 222.273C176.835 229.713 173.176 244.797 179.95 248.755C187.076 245.187 182.684 237.632 184.025 222.213L203.457 221.485C214.283 235.877 209.338 246.078 220.212 245.044C222.12 237.176 214.336 227.195 211.694 220.304L232.938 217.209C235.468 222.425 237.708 225.274 240.941 230.651C244.488 236.55 245.313 241.018 251.083 240.238C254.921 232.148 244.822 227.958 240.56 214.919L258.309 210.014C266.615 217.042 271.321 230.082 277.474 231.285C280.204 231.82 279.282 231.429 280.708 230.846C282.436 224.459 269.518 214.133 265.987 206.311ZM2.16445 199.448L13.698 201.483C2.25117 241.249 25.9361 253.599 53.7675 267.264C66.3432 273.439 80.022 277.621 94.4111 282.297C107.302 286.483 133.659 287.971 142.483 292.018L142.691 339.992C143.247 399.669 170.78 330.807 161.277 438.938C150.841 446.258 154.343 437.964 152.466 468.427C148.761 528.578 158.212 489.401 155.445 536.921C154.775 548.406 153.329 561.16 153.305 572.41C153.251 595.283 179.453 608.649 197.512 593.642C213.48 580.374 204.521 550.639 204.508 527.282C267.597 528.985 283.206 487.076 357.814 492.342C416.809 496.505 457.556 530.4 517.007 522.44L559.946 453.022C530.901 459.941 504.959 470.168 471.488 470.157C405.544 470.137 373.361 435.464 284.477 468.443C262.301 476.671 225.022 497.458 201.267 478.591L200.455 464.275C224.373 455.46 238.709 447.177 268.458 442.798C344.612 431.585 421.615 439.59 498.061 442.75C529.89 444.066 596.626 436.199 599.881 398.961C600.783 388.627 596.447 386.075 590.584 382.131C585.971 374.267 576.318 377.902 591.975 387.383C593.52 391.935 588.588 406.602 578.693 413.19L578.686 413.197C532.693 443.796 387.784 423.876 328.836 423.851C282.745 423.845 243.118 428.113 198.372 432.57C197.922 419.894 196.22 406.411 196.272 393.948C196.361 372.538 202.996 376.448 211.474 367.157C223.644 353.822 215.24 311.911 218.178 291.1C259.157 286.679 312.59 272.393 340.534 244.738C352.849 232.55 351.381 218.665 346.73 201.746L358.698 199.683C361.693 187.695 361.21 184.412 350.863 179.348C337.945 173.023 339.622 179.791 335.104 188.184C276.191 162.463 293.131 215.148 179.956 215.123C99.4753 215.103 86.1559 190.3 65.1749 182.969C46.6654 176.503 37.6106 182.564 24.7573 188.481C23.7792 183.683 22.0475 179.955 20.0062 176.788C9.8661 175.752 9.30903 178.803 8.56868 179.153L2.71199 182.514C-2.07824 187.649 0.616618 194.466 2.16445 199.448Z" fill="#060606"/>
<path fill-rule="evenodd" clip-rule="evenodd" d="M265.987 206.311C269.518 214.133 282.436 224.459 280.708 230.846C279.283 231.429 280.204 231.82 277.474 231.285C271.321 230.082 266.615 217.042 258.309 210.014L240.56 214.919C244.823 227.958 254.922 232.148 251.083 240.238C245.313 241.018 244.488 236.55 240.941 230.651C237.708 225.274 235.468 222.425 232.938 217.209L211.695 220.304C214.336 227.195 222.121 237.177 220.213 245.044C209.338 246.078 214.283 235.877 203.458 221.485L184.026 222.213C182.684 237.632 187.076 245.187 179.95 248.755C173.176 244.798 176.835 229.713 176.037 222.273L157.925 221.343L148.563 240.967C145.72 246.152 148.828 244.838 142.339 245.327C137.698 239.165 147.506 227.406 150.05 221.557C147.573 220.001 142.096 218.303 128.674 217.438C123.825 226.378 116.9 240.689 110.152 240.36C107.746 232.515 117.843 224.082 120.978 215.018L103.164 210.282C93.356 217.576 91.5296 230.94 80.7678 232.02C78.4413 222.943 87.0018 222.074 95.0668 206.858C77.0399 200.835 54.6818 175.691 31.1451 193.161C11.8096 207.514 10.8418 233.033 35.6486 248.704C78.4686 275.756 119.227 284.132 178.384 286.209C228.795 287.978 288.052 272.714 322.567 250.048C367.81 220.337 330.163 176.431 296.1 190.221C285.498 194.513 279.719 202.091 265.987 206.311Z" fill="#FEFEFE"/>
<path fill-rule="evenodd" clip-rule="evenodd" d="M176.635 201.987C190.88 200.892 197.766 167.538 198.493 155.615C200.727 119.039 173.309 88.282 160.965 55.4729C149.239 24.3017 166.288 9.82647 163.88 0.0804854C154.485 -0.992627 150.449 8.89884 146.553 15.8095C119.311 64.1301 165.055 93.7003 177.035 141.543C182.295 162.552 173.982 195.328 176.635 201.987Z" fill="#2F2F2F"/>
<path fill-rule="evenodd" clip-rule="evenodd" d="M165.984 483.889C165 496.861 157.868 573.486 162.78 582.823C166.221 589.364 175.321 594.881 186.238 591.843C206.383 586.235 198.757 556.397 197.477 534.936C196.172 513.052 194.256 491.016 193.558 469.102C186.01 470.33 172.77 480.468 165.984 483.889Z" fill="#FEFEFE"/>
<path fill-rule="evenodd" clip-rule="evenodd" d="M140.867 191.181C151.293 190.175 155.134 171.639 155.984 162.748C157.396 147.993 153.296 138.386 147.702 126.487C142.903 116.281 136.584 107.05 132.465 96.089C124.608 75.181 136.045 65.7168 133.451 59.1085C123.334 56.573 116.465 77.8034 115.731 85.1518C113.065 111.766 134.666 125.261 140.514 151.42C143.019 162.629 138.321 186.474 140.867 191.181Z" fill="#060606"/>
<path fill-rule="evenodd" clip-rule="evenodd" d="M216.429 167.057C230.713 165.764 237.615 132.649 223.089 102.315C213.629 82.5633 198.578 66.1471 207.552 43.9067L208.63 35.1046C198.226 32.6085 179.254 62.7084 201.269 96.1777C228.801 138.032 210.267 157.548 216.429 167.057Z" fill="#060606"/>
<path d="M314.298 299.951L311.619 306.606C292.798 305.594 267.51 321.226 261.088 343.716C258.964 351.154 258.664 354.188 260.274 364.307C260.274 364.307 264.702 324.539 305.134 316.06L282.044 372.285C282.044 372.285 276.974 370.792 271.486 372.166C268.373 372.942 264.405 376.452 266.909 382.164C269.553 388.194 283.674 378.882 283.674 378.882C286.488 378.525 305.929 382.486 318.029 374.35C324.984 369.672 332.872 356.672 335.072 348.929C339.069 334.865 338.251 314.591 322.316 309.522L323.678 302.939L314.298 299.951ZM316.185 317.239C318.867 317.622 323.043 318.644 324.728 322.418C331.264 337.05 326.022 371.802 293.621 370.388L316.185 317.239Z" fill="black" stroke="black" stroke-width="1.47146"/>
<path d="M382.136 332.037L374.139 336.692C347.245 321.244 332.699 373.361 332.699 373.361L321.69 377.381C327.425 380.626 337.898 379.185 337.898 379.185C353.384 381.939 359.883 374.889 359.883 374.889C373.604 382.036 379.766 379.202 381.16 378.354C380.289 378.565 378.427 378.007 375.361 372.141C370.92 363.642 386.67 337.04 386.67 337.04L382.136 332.037ZM381.16 378.354C381.553 378.255 381.761 378.03 381.761 378.03C381.761 378.03 381.358 378.239 381.16 378.354ZM367.194 344.578C370.137 344.578 371.683 346.092 371.932 347.305C372.43 349.734 356.711 376.443 348.425 370.9C340.139 365.357 354.031 350.699 354.031 350.699C359.901 346.019 364.251 344.56 367.194 344.578Z" fill="black"/>
<path d="M381.16 378.354C379.766 379.202 373.604 382.036 359.883 374.889C359.883 374.889 353.384 381.939 337.898 379.185C337.898 379.185 327.425 380.626 321.69 377.381L332.699 373.361C332.699 373.361 347.245 321.244 374.139 336.692L382.136 332.037L386.67 337.04C386.67 337.04 370.92 363.642 375.361 372.141C378.427 378.007 380.289 378.565 381.16 378.354ZM381.16 378.354C381.553 378.255 381.761 378.03 381.761 378.03C381.761 378.03 381.358 378.239 381.16 378.354ZM367.194 344.578C370.137 344.578 371.683 346.092 371.932 347.305C372.43 349.734 356.711 376.443 348.425 370.9C340.139 365.357 354.031 350.699 354.031 350.699C359.901 346.019 364.251 344.56 367.194 344.578Z" stroke="black" stroke-width="1.47146"/>
<path d="M463.212 332.825C444.007 332.955 435.976 368.045 435.037 372.474L438.951 381.224C445.42 383.447 461.807 373.556 461.807 373.556C476.374 387.772 496.141 377.761 496.141 377.761C504.238 382.546 520.012 379.411 520.012 379.411C525.095 381.49 545.835 379.044 545.835 379.044C566.658 383.905 575.151 369.662 575.151 369.662C586.467 387.394 592.265 384.276 592.265 384.276C592.265 384.276 587.165 379.177 586.898 375.58C586.296 367.487 597.812 334.931 597.812 334.931L586.376 333.578L584.5 338.838C584.5 338.838 586.633 332.216 566.407 335.28C546.18 338.343 542.17 370.719 542.17 370.719C534.38 379.267 526.435 374.861 526.435 374.861L531.858 367.826C537.739 357.701 523.647 345.627 523.647 345.627C531.534 336.966 528.384 332.655 518.115 334.737C507.847 336.818 512.661 349.359 512.661 349.359C512.661 349.359 506.839 356.792 495.883 368.492C484.928 380.193 477.475 376.274 476.119 372.739C474.762 369.204 490.065 336.479 490.065 336.479L479.217 334.018L475.914 337.402C471.227 334.159 467.005 332.801 463.212 332.829V332.825ZM468.206 343.945C470.104 344.005 471.996 344.602 473.748 346.024C473.748 346.024 460.452 369.689 449.427 370.327C438.402 370.962 454.637 350.341 454.637 350.341C454.637 350.341 460.889 344.252 467.392 343.952C467.662 343.939 467.935 343.935 468.206 343.945ZM576.402 344.974C578.395 345.039 580.389 345.659 582.228 347.151C582.228 347.151 568.269 371.975 556.704 372.643C545.138 373.312 562.171 351.684 562.171 351.684C562.171 351.684 568.727 345.293 575.549 344.979C575.833 344.966 576.117 344.967 576.402 344.974ZM516.271 358.063C516.271 358.063 521.362 376.11 511.876 374.778C502.39 373.446 504.084 369.947 504.084 369.947C504.084 369.947 516.119 359.845 516.271 358.063Z" fill="black" stroke="black" stroke-width="1.47146"/>
<path d="M435.037 372.474C435.037 372.474 422.761 391.433 414.319 392.457C405.878 393.48 399.951 387.212 399.46 383.122C398.968 379.032 409.85 343.299 423.987 327.729C438.124 312.16 451.491 304.15 451.895 313.005C452.3 321.86 435.83 329.765 435.83 329.765C435.83 329.765 431.108 340.69 442.684 336.351C454.261 332.011 478.808 311.512 453.383 298.295C427.959 285.079 383.057 365.067 387.31 382.63C391.562 400.193 405.808 412.827 425.076 396.292C444.344 379.756 443.595 373.961 443.595 373.961C443.595 373.961 442.062 363.663 435.037 372.474Z" fill="black" stroke="black" stroke-width="1.47146"/>
</g>
</svg>
