<svg width="25" height="22" viewBox="0 0 25 22" fill="none" xmlns="http://www.w3.org/2000/svg">
<g id="&#240;&#159;&#166;&#134; icon &#34;whatsapp&#34;">
<path id="Vector" fill-rule="evenodd" clip-rule="evenodd" d="M21.3575 3.52583C19.0072 1.51884 15.8819 0.413048 12.5527 0.411865C5.6919 0.411865 0.106767 5.17448 0.103993 11.0287C0.103993 12.8997 0.67665 14.7257 1.76511 16.3365L0 21.8371L6.59872 20.36C8.41791 21.2056 10.4645 21.6514 12.5471 21.6526H12.5527C19.4121 21.6526 24.9972 16.89 25 11.0358C25 8.19974 23.7077 5.53282 21.3575 3.52583ZM12.5527 19.8609H12.5485C10.6919 19.8597 8.87132 19.4351 7.28231 18.6297L6.90516 18.4381L2.98946 19.3145L4.03356 16.0586L3.78813 15.7251C2.75236 14.3201 2.20605 12.6963 2.20605 11.0287C2.20882 6.16319 6.84969 2.20479 12.5568 2.20479C15.3203 2.20597 17.9174 3.12491 19.871 4.79247C21.8233 6.46122 22.8993 8.67754 22.8979 11.0358C22.8952 15.9013 18.2543 19.8609 12.5527 19.8609ZM18.228 13.2509C17.916 13.1173 16.388 12.4763 16.1023 12.3876C15.8181 12.2989 15.6115 12.2551 15.4035 12.52C15.1955 12.785 14.5993 13.3822 14.4176 13.5596C14.236 13.737 14.0544 13.7583 13.7438 13.6258C13.4332 13.4934 12.4307 13.2131 11.2424 12.3095C10.3175 11.6058 9.69357 10.7378 9.51192 10.4717C9.33028 10.2056 9.49251 10.0624 9.64919 9.92999C9.78924 9.81172 9.95979 9.62013 10.1151 9.4652C10.2704 9.31027 10.3217 9.20028 10.4257 9.02288C10.5297 8.84548 10.4784 8.69055 10.3993 8.55809C10.3217 8.42445 9.69911 7.11878 9.43982 6.58777C9.18885 6.0733 8.93233 6.1419 8.74099 6.1348C8.56073 6.12771 8.35275 6.12534 8.14614 6.12534C7.93816 6.12534 7.60122 6.19157 7.31558 6.45649C7.02995 6.72259 6.22712 7.3636 6.22712 8.66926C6.22712 9.97493 7.34193 11.2368 7.49723 11.4142C7.65252 11.5916 9.69079 14.2704 12.8106 15.4199C13.5538 15.6931 14.1334 15.8563 14.584 15.9793C15.3286 16.1816 16.0067 16.152 16.5433 16.0846C17.1409 16.0089 18.3832 15.4436 18.6425 14.8239C18.9018 14.2042 18.9018 13.6731 18.8242 13.562C18.7465 13.4508 18.5372 13.3834 18.228 13.2509Z" fill="black"/>
</g>
</svg>
